<?xml version="1.0" standalone="no"?>
<!DOCTYPE svg PUBLIC "-//W3C//DTD SVG 20010904//EN"
 "http://www.w3.org/TR/2001/REC-SVG-20010904/DTD/svg10.dtd">
<svg version="1.0" xmlns="http://www.w3.org/2000/svg"
 width="740.000000pt" height="740.000000pt" viewBox="0 0 740.000000 740.000000"
 preserveAspectRatio="xMidYMid meet">

<g transform="translate(0.000000,740.000000) scale(0.100000,-0.100000)"
fill="#fff" stroke="none">
<path d="M0 3700 l0 -3700 3700 0 3700 0 0 3700 0 3700 -3700 0 -3700 0 0
-3700z m7133 800 c-5 -4 -37 -19 -73 -35 -36 -15 -164 -73 -285 -127 -121 -55
-281 -127 -355 -160 -74 -33 -214 -97 -310 -140 -96 -44 -180 -82 -186 -84 -7
-3 -14 13 -18 43 -58 407 -227 798 -479 1108 -36 44 -62 83 -59 86 4 4 68 34
142 67 74 33 252 113 395 177 143 64 319 143 390 175 192 86 509 228 685 308
l155 70 3 -741 c1 -408 -1 -744 -5 -747z m-2746 -458 l-168 -168 -251 253
-252 253 -251 -256 -250 -256 -167 168 -167 168 92 96 c50 52 238 242 417 422
l325 327 420 -419 420 -420 -168 -168z m-1504 -170 l167 -167 -170 -170 -170
-170 -146 150 c-80 83 -155 160 -167 173 l-21 23 165 164 c90 91 166 165 169
165 3 0 81 -75 173 -168z m1007 3 l165 -165 -170 -170 -170 -170 -169 169
-169 170 164 165 c90 90 169 165 174 165 6 1 84 -73 175 -164z m1000 0 l165
-165 -168 -168 -169 -169 -164 166 -164 165 163 167 c89 91 164 167 167 168 3
0 79 -73 170 -164z m-1422 -588 l252 -253 252 254 252 253 165 -165 166 -166
-420 -420 -420 -420 -413 412 c-226 227 -415 417 -419 421 -6 7 311 332 327
336 3 0 119 -113 258 -252z m-1958 48 c52 -354 240 -771 470 -1044 34 -40 58
-77 53 -81 -7 -7 -102 -51 -558 -255 -265 -119 -660 -297 -860 -387 -260 -117
-273 -123 -318 -141 l-37 -16 0 743 0 744 103 45 c56 25 203 91 327 147 124
56 304 137 400 180 96 43 225 101 285 129 126 58 116 63 135 -64z"/>
</g>
</svg>
